<?xml version="1.0" encoding="UTF-8" standalone="no" ?>
<!DOCTYPE svg PUBLIC "-//W3C//DTD SVG 1.1//EN" "http://www.w3.org/Graphics/SVG/1.1/DTD/svg11.dtd">
<svg xmlns="http://www.w3.org/2000/svg" xmlns:xlink="http://www.w3.org/1999/xlink" version="1.1" width="1080" height="1080" viewBox="0 0 1080 1080" xml:space="preserve">
<defs>
</defs>
<rect x="0" y="0" width="100%" height="100%" fill="transparent"></rect>
<g transform="matrix(1 0 0 1 540 540)" id="46c5173a-d1d5-42fc-b1f5-43e43feb0e24"  >
</g>
<g transform="matrix(1 0 0 1 540 540)" id="38f8c038-b623-4801-a9f3-8d45d024c5a6"  >
<rect style="stroke: none; stroke-width: 1; stroke-dasharray: none; stroke-linecap: butt; stroke-dashoffset: 0; stroke-linejoin: miter; stroke-miterlimit: 4; fill: rgb(255,255,255); fill-rule: nonzero; opacity: 1; visibility: hidden;" vector-effect="non-scaling-stroke"  x="-540" y="-540" rx="0" ry="0" width="1080" height="1080" />
</g>
<g transform="matrix(7.25 0 0 7.25 180.55 528.54)"  >
<path style="stroke: none; stroke-width: 1; stroke-dasharray: none; stroke-linecap: butt; stroke-dashoffset: 0; stroke-linejoin: miter; stroke-miterlimit: 4; fill: #FFAE42; fill-rule: nonzero; opacity: 1;" vector-effect="non-scaling-stroke"  transform=" translate(-50, -50)" d="M 64.332 60.413 C 65.17299999999999 56.357 66.22 51.309 67.189 46.19 C 69.362 34.702999999999996 68.336 17.025999999999996 68.29199999999999 16.278999999999996 L 68.27099999999999 15.929999999999996 C 68.31499999999998 15.657999999999996 68.34199999999998 15.383999999999997 68.34199999999998 15.109999999999996 C 68.34199999999998 12.106999999999996 65.76599999999999 9.666999999999996 62.734999999999985 9.925999999999995 C 61.58399999999998 6.471999999999994 58.380999999999986 4.128999999999995 54.667999999999985 4.128999999999995 C 52.70999999999999 4.128999999999995 50.850999999999985 4.7869999999999955 49.344999999999985 5.997999999999995 C 47.947999999999986 4.770999999999995 46.143999999999984 4.080999999999995 44.27399999999999 4.080999999999995 C 40.703999999999986 4.080999999999995 37.62999999999999 6.550999999999995 36.801999999999985 9.950999999999995 C 34.012999999999984 10.041999999999994 31.772999999999985 12.338999999999995 31.772999999999985 15.148999999999996 C 31.772999999999985 15.236999999999995 31.786999999999985 15.325999999999995 31.791999999999984 15.414999999999996 L 31.76 15.414999999999996 L 31.708000000000002 16.278999999999996 C 31.664 17.025999999999996 30.638 34.702999999999996 32.811 46.19 C 33.78 51.311 34.827 56.358999999999995 35.668 60.416 C 36.711 65.444 37.535 69.416 37.617 70.648 C 37.763999999999996 72.847 35.699 88.28999999999999 35.209999999999994 91.072 C 34.93899999999999 92.61500000000001 34.724999999999994 93.834 35.513999999999996 94.774 C 36.19799999999999 95.588 37.43299999999999 95.92 39.778999999999996 95.92 L 60.221 95.92 C 62.56699999999999 95.92 63.803 95.58800000000001 64.48599999999999 94.774 C 65.27499999999999 93.834 65.06099999999999 92.615 64.77999999999999 91.021 C 64.29999999999998 88.289 62.23599999999999 72.844 62.381999999999984 70.649 C 62.465 69.415 63.289 65.442 64.332 60.413 z M 33.611 15.148 C 33.611 13.294 35.119 11.786 36.973 11.786 C 37.129999999999995 11.786 37.284 11.802 37.436 11.822 L 38.352 11.943 L 38.468999999999994 11.027 C 38.84199999999999 8.114999999999998 41.336999999999996 5.919 44.272999999999996 5.919 C 45.928 5.919 47.51499999999999 6.63 48.628 7.8709999999999996 L 49.274 8.591 L 49.961 7.9079999999999995 C 51.22 6.656 52.891999999999996 5.965999999999999 54.667 5.965999999999999 C 57.808 5.965999999999999 60.484 8.106 61.174 11.169 L 61.383 12.096 L 62.302 11.857 C 64.507 11.282 66.502 12.981 66.502 15.107999999999999 C 66.502 15.209999999999999 66.497 15.310999999999998 66.488 15.412999999999998 L 63.998 15.412999999999998 L 42.602 15.412999999999998 L 42.602 25.854 C 42.602 27.233 41.48 28.355 40.101 28.355 C 39.932 28.355 39.766999999999996 28.337 39.607 28.305 C 38.650999999999996 28.108999999999998 37.884 27.358 37.666 26.407 C 37.665 26.403 37.663 26.399 37.663 26.395 C 37.632999999999996 26.262 37.620999999999995 26.123 37.613 25.983 C 37.611 25.939 37.6 25.898 37.6 25.853 L 37.6 15.414 L 33.624 15.414 C 33.615 15.325 33.611 15.237 33.611 15.148 z M 61.53 44.338 C 60.666000000000004 50.282000000000004 59.142 57.002 58.03 61.908 C 57.179 65.661 56.733000000000004 67.659 56.69 68.501 C 56.58 70.64800000000001 57.986999999999995 84.158 58.303 86.492 C 58.413 87.308 58.538 88.23400000000001 58.361 88.437 C 58.321 88.481 58.062 88.705 56.782999999999994 88.705 L 43.218 88.705 C 41.93900000000001 88.705 41.679 88.481 41.64 88.437 C 41.463 88.234 41.588 87.309 41.704 86.449 C 42.014 84.15599999999999 43.42 70.644 43.311 68.501 C 43.268 67.66000000000001 42.822 65.66300000000001 41.971 61.911 C 40.858 57.004000000000005 39.334999999999994 50.284 38.471 44.339 C 37.858 40.125 37.653 34.357 37.608999999999995 29.4 L 37.608999999999995 29.4 C 37.709999999999994 29.471 37.818999999999996 29.528 37.925999999999995 29.590999999999998 C 38.03999999999999 29.657999999999998 38.154999999999994 29.723999999999997 38.275999999999996 29.781 C 38.379 29.828999999999997 38.483 29.869999999999997 38.589 29.91 C 38.737 29.966 38.888999999999996 30.012 39.044 30.052 C 39.107 30.067999999999998 39.163 30.096 39.227 30.108999999999998 C 39.256 30.115 39.288 30.113 39.317 30.118 C 39.572 30.165 39.832 30.197 40.1 30.197 C 40.399 30.197 40.691 30.166999999999998 40.974000000000004 30.108999999999998 C 42.95 29.703999999999997 44.441 27.950999999999997 44.441 25.857 L 44.441 17.253999999999998 L 62.232 17.253999999999998 C 62.36 21.006 62.766 35.841 61.53 44.338 z M 62.979 91.39 C 63.152 92.376 63.316 93.308 63.077999999999996 93.592 C 62.925 93.775 62.349 94.081 60.221999999999994 94.081 L 39.779 94.081 C 37.651 94.081 37.076 93.774 36.923 93.592 C 36.685 93.30799999999999 36.848 92.377 37.031 91.339 C 37.498 88.681 39.619 73.014 39.452999999999996 70.526 C 39.36299999999999 69.167 38.568999999999996 65.339 37.47 60.041999999999994 C 36.629999999999995 55.992 35.585 50.952999999999996 34.619 45.84799999999999 C 32.757 36.001999999999995 33.322 20.99199999999999 33.5 17.252999999999993 L 35.76 17.252999999999993 L 35.76 25.855999999999995 C 35.76 25.876999999999995 35.766 25.897999999999996 35.766 25.918999999999993 L 35.763 25.918999999999993 C 35.736999999999995 31.482999999999993 35.87 39.24199999999999 36.65 44.60399999999999 C 37.525 50.620999999999995 39.058 57.38099999999999 40.177 62.31799999999999 C 40.853 65.29899999999999 41.436 67.874 41.473 68.59599999999999 C 41.57 70.49799999999999 40.199 83.84499999999998 39.874 86.24799999999999 C 39.68 87.68299999999999 39.527 88.81599999999999 40.253 89.648 C 40.944 90.439 42.138 90.545 43.216 90.545 L 56.781 90.545 C 57.858 90.545 59.053 90.43900000000001 59.743 89.648 C 60.47 88.816 60.317 87.68299999999999 60.117000000000004 86.204 C 59.798 83.847 58.42700000000001 70.50299999999999 58.524 68.597 C 58.561 67.874 59.145 65.29899999999999 59.821 62.31699999999999 C 60.94 57.38099999999999 62.473 50.620999999999995 63.348 44.60499999999999 C 64.616 35.88499999999999 64.208 21.16399999999999 64.07 17.25499999999999 L 66.499 17.25499999999999 C 66.678 20.992999999999988 67.243 36.00099999999999 65.38 45.84999999999999 C 64.414 50.953999999999986 63.36899999999999 55.99299999999999 62.528999999999996 60.04099999999999 C 61.43 65.33899999999998 60.635999999999996 69.16799999999999 60.544999999999995 70.52799999999999 C 60.382 73.01 62.502 88.679 62.979 91.39 z" stroke-linecap="round" />
</g>
<g transform="matrix(15.99 0 0 15.99 701.74 548.58)"  >
<path style="stroke: none; stroke-width: 1; stroke-dasharray: none; stroke-linecap: butt; stroke-dashoffset: 0; stroke-linejoin: miter; stroke-miterlimit: 4; fill: #FFAE42; fill-rule: nonzero; opacity: 1;" vector-effect="non-scaling-stroke"  transform=" translate(-19.92, -27.23)" d="M -0.68 14.32 C -0.6000000000000001 14.32 -0.49996000000000007 14.286836000000001 -0.3799600000000001 14.220156000000001 C -0.2599600000000001 14.153476000000001 -0.13328000000000007 14.133476000000002 0.00003999999999992898 14.160156 C 0.13335999999999992 14.186836 0.2533599999999999 14.306836 0.3600399999999999 14.520156 C 0.4667199999999999 14.733476 0.5467199999999999 15.106796 0.6000399999999999 15.640156000000001 C 0.6533599999999999 16.306836 0.7066799999999999 17.120156 0.7599999999999999 18.080156000000002 C 0.8133199999999999 19.040156000000003 0.8733199999999999 20.073456000000004 0.94 21.180156000000004 C 1.00668 22.286856000000004 1.08 23.440156 1.16 24.640156000000005 C 1.2399999999999998 25.840156000000007 1.3199999999999998 27.006856000000006 1.4 28.140156000000005 C 1.48 29.273456000000003 1.5533199999999998 30.326756000000003 1.6199999999999999 31.300156000000005 C 1.68668 32.273556000000006 1.7466799999999998 33.106756000000004 1.7999999999999998 33.800156 C 1.88 33.480156 2.04 33.046836 2.28 32.500156000000004 C 2.5199999999999996 31.95347600000001 2.82 31.380156000000003 3.1799999999999997 30.780156000000005 C 3.5399999999999996 30.180156000000007 3.96 29.606856000000004 4.4399999999999995 29.060156000000006 C 4.919999999999999 28.51345600000001 5.4399999999999995 28.093476000000006 6 27.800156000000005 C 6.45332 27.613476000000006 6.84 27.513476000000004 7.16 27.500156000000004 C 7.48 27.486836000000004 7.75332 27.533515000000005 7.98 27.640196000000003 C 8.20668 27.746877 8.393360000000001 27.880196 8.540040000000001 28.040196 C 8.686720000000001 28.200196000000002 8.800040000000001 28.346876 8.880040000000001 28.480196000000003 C 9.200040000000001 29.253516000000005 9.313360000000001 30.146796000000002 9.220040000000001 31.160196000000003 C 9.12672 32.173596 8.8734 33.180196 8.460080000000001 34.180196 C 8.046760000000003 35.180196 7.480080000000001 36.093496 6.760080000000001 36.920196000000004 C 6.0400800000000014 37.74689600000001 5.200080000000002 38.346896 4.240080000000001 38.720196 C 3.706760000000001 38.933516000000004 3.320080000000001 39.046836 3.0800800000000006 39.060156 C 2.8400800000000004 39.073476 2.6000800000000006 39.080156 2.360080000000001 39.080156 C 2.4134000000000007 39.480156 2.426720000000001 39.746836 2.4000410000000008 39.880156 C 2.3733620000000006 40.013476 2.333361000000001 40.093476 2.2800410000000007 40.120156 C 2.1733610000000008 40.226836 2.0000410000000004 40.286836 1.7600410000000006 40.300156 C 1.5200410000000009 40.313476 1.2800410000000007 40.2934764 1.0400410000000007 40.240156 C 0.8800410000000006 38.160156 0.7333610000000006 36.146955999999996 0.6000410000000007 34.200156 C 0.5467210000000007 33.373476 0.48672100000000074 32.520156 0.4200410000000007 31.640156 C 0.3533610000000007 30.760156000000002 0.28668100000000074 29.906856 0.22000100000000072 29.080156000000002 C 0.1533210000000007 28.253456000000003 0.09332100000000074 27.473456000000002 0.04000100000000073 26.740156000000002 C -0.013318999999999276 26.006856000000003 -0.05331899999999927 25.360156000000003 -0.07999899999999927 24.800156 C -0.10667899999999926 23.786856 -0.16667899999999924 22.666856000000003 -0.25999899999999926 21.440156 C -0.3533189999999993 20.213456 -0.43999899999999925 19.073456 -0.5199989999999992 18.020156 C -0.5999989999999992 16.966856 -0.6666789999999992 16.080156 -0.7199989999999992 15.360156 C -0.7733189999999991 14.640156000000001 -0.7599989999999992 14.293455999999999 -0.6799989999999991 14.320156 z M 6.04 29.4 C 5.66668 29.613319999999998 5.2732 29.98672 4.8599 30.52 C 4.446599999999999 31.05328 4.0599 31.7 3.6998999999999995 32.46 C 3.339899999999999 33.22 3.0332199999999996 34.0533 2.7798999999999996 34.96 C 2.5265799999999996 35.8667 2.3732599999999997 36.7734 2.3199399999999994 37.68 C 2.8532599999999997 37.81332 3.3999399999999995 37.74 3.9599399999999996 37.46 C 4.51994 37.18 5.03994 36.786680000000004 5.51994 36.28 C 5.9999400000000005 35.77332 6.43326 35.1866 6.81994 34.52 C 7.20662 33.85340000000001 7.5133 33.1933 7.73998 32.540000000000006 C 7.96666 31.886700000000012 8.09334 31.273400000000006 8.12002 30.700000000000006 C 8.146700000000001 30.126600000000007 8.04002 29.666700000000006 7.80002 29.320000000000007 C 7.61334 28.973320000000008 7.33334 28.846640000000008 6.96002 28.939960000000006 C 6.5867 29.033280000000005 6.28002 29.186600000000006 6.04002 29.399920000000005 z M 11.48 27.36 C 11.45332 27.12 11.579804000000001 27.05984 11.8598 27.17984 C 12.139795999999999 27.299839999999996 12.42648 27.42652 12.7198 27.559839999999998 C 12.82648 28.17316 12.90648 28.65984 12.9598 29.01984 C 13.013119999999999 29.379839999999998 13.05312 29.719839999999998 13.079799999999999 30.039839999999998 C 13.106479999999998 30.35984 13.133159999999998 30.706519999999998 13.159839999999999 31.079839999999997 C 13.18652 31.453159999999997 13.226519999999999 31.946479999999998 13.279839999999998 32.559839999999994 C 13.519839999999999 31.946519999999992 13.813159999999998 31.379839999999994 14.159839999999999 30.859839999999995 C 14.50652 30.339839999999995 14.953199999999999 29.893159999999995 15.499839999999999 29.519839999999995 C 16.04648 29.146519999999995 16.69984 28.873199999999994 17.45984 28.699879999999993 C 18.21984 28.526559999999993 19.13314 28.466559999999994 20.199840000000002 28.519879999999993 C 20.199840000000002 28.733199999999993 20.126520000000003 28.913199999999993 19.979840000000003 29.059879999999993 C 19.833160000000003 29.206559999999993 19.493160000000003 29.319879999999994 18.959840000000003 29.399879999999992 C 18.18652 29.533199999999994 17.513240000000003 29.79319999999999 16.939840000000004 30.179879999999994 C 16.366440000000004 30.566559999999996 15.873240000000004 31.013239999999993 15.459840000000003 31.519879999999993 C 15.046440000000002 32.02651999999999 14.713200000000004 32.566579999999995 14.459880000000004 33.13987999999999 C 14.206560000000003 33.71317999999999 13.999880000000003 34.23987999999999 13.839880000000004 34.71987999999999 C 13.813200000000004 34.95987999999999 13.779880000000004 35.29987999999999 13.739880000000005 35.73987999999999 C 13.699880000000006 36.17988 13.673200000000005 36.646559999999994 13.659880000000005 37.13987999999999 C 13.646560000000004 37.63319999999999 13.633239000000005 38.11319999999999 13.619919000000005 38.57987999999999 C 13.606599000000005 39.046559999999985 13.626598600000005 39.41323999999999 13.679919000000005 39.67987999999999 C 13.706599000000006 39.81319999999999 13.646599000000005 39.91319999999999 13.499919000000006 39.97987999999999 C 13.353239000000006 40.046559999999985 13.186559000000006 40.09323999999999 12.999879000000005 40.119919999999986 C 12.813199000000004 40.146599999999985 12.639879000000006 40.13327899999999 12.479879000000006 40.07995899999999 C 12.319879000000006 40.02663899999999 12.239879000000006 39.93331899999999 12.239879000000006 39.799998999999985 C 12.293199000000005 37.05329899999999 12.219879000000006 34.686798999999986 12.019879000000005 32.699998999999984 C 11.819879000000004 30.71319899999998 11.639879000000004 28.933298999999984 11.479879000000004 27.359998999999984 z M 22.28 22.4 C 22.546680000000002 22.34668 22.70664 22.506719999999998 22.75996 22.880039999999997 C 22.81328 23.253359999999997 22.75996 23.53336 22.59996 23.720039999999997 C 22.306639999999998 23.960039999999996 22.11996 24.166719999999998 22.03996 24.34004 C 21.959960000000002 24.51336 21.77328 24.626679999999997 21.479960000000002 24.68 C 21.319960000000002 24.65332 21.17996 24.646641 21.05996 24.659961 C 20.93996 24.673281 20.83996 24.453281 20.75996 23.999961 C 20.86664 23.706640999999998 21.03332 23.413321 21.259999999999998 23.120001 C 21.486679999999996 22.826680999999997 21.82668 22.586681 22.279999999999998 22.400001 z M 22.4 27.6 C 22.53332 28.880000000000003 22.626759999999997 30.286700000000003 22.68008 31.82 C 22.733400000000003 33.3533 22.82672 34.96 22.96004 36.64 C 23.06672 37.49332 23.1734 38.160000000000004 23.280079999999998 38.64 C 23.386759999999995 39.12 23.466759999999997 39.57332 23.520079999999997 40 C 23.093399999999995 40.08 22.760079999999995 40.07332 22.520079999999997 39.98 C 22.280079999999998 39.88667999999999 22.053399999999996 39.77336 21.840079999999997 39.64004 C 21.786759999999997 39.21336 21.726759999999995 38.50664 21.660079999999997 37.52004 C 21.5934 36.533440000000006 21.526719999999997 35.46004 21.460039999999996 34.30004 C 21.393359999999994 33.140040000000006 21.326679999999996 32.01334 21.259999999999994 30.920040000000004 C 21.193319999999993 29.826740000000008 21.133319999999994 28.960040000000003 21.079999999999995 28.320040000000002 C 21.186679999999996 28.266720000000003 21.273359999999993 28.18672 21.340039999999995 28.080040000000004 C 21.406719999999996 27.973360000000007 21.480039999999995 27.880040000000005 21.560039999999994 27.800040000000003 C 21.640039999999992 27.72004 21.746719999999993 27.653360000000003 21.880039999999994 27.600040000000003 C 22.013359999999995 27.546720000000004 22.186679999999996 27.546720000000004 22.399999999999995 27.600040000000003 z M 25.52 26.52 C 25.52 26.28 25.586327999999998 26.139879999999998 25.719649999999998 26.09988 C 25.852971999999998 26.05988 25.99297 26.06656 26.13965 26.11988 C 26.28633 26.173199999999998 26.43301 26.25988 26.57969 26.37988 C 26.72637 26.49988 26.82637 26.58656 26.87969 26.63988 C 26.93301 27.3332 26.906331 28.279880000000002 26.79965 29.47988 C 26.692968999999998 30.67988 26.63965 32.17318 26.63965 33.95988 C 26.74633 33.5332 26.90633 33.02652 27.11965 32.439879999999995 C 27.33297 31.853239999999992 27.57965 31.259879999999995 27.85965 30.659879999999994 C 28.139649999999996 30.059879999999993 28.44633 29.499879999999994 28.77965 28.979879999999994 C 29.11297 28.459879999999995 29.43965 28.046559999999996 29.75965 27.739879999999996 C 30.07965 27.433199999999996 30.38633 27.279879999999995 30.679650000000002 27.279879999999995 C 30.972970000000004 27.279879999999995 31.23965 27.506559999999993 31.479650000000003 27.959879999999995 C 31.532970000000002 28.093199999999996 31.579650000000004 28.366519999999994 31.619650000000004 28.779839999999993 C 31.659650000000003 29.193159999999992 31.686330000000005 29.693159999999992 31.699650000000002 30.279839999999993 C 31.71297 30.866519999999994 31.73297 31.51983999999999 31.75965 32.239839999999994 C 31.78633 32.95984 31.826330000000002 33.69313999999999 31.87965 34.43984 C 32.11965 33.853159999999995 32.39297 33.20643999999999 32.69965 32.49984 C 33.00633 31.793240000000004 33.33301 31.15314 33.67969 30.579839999999997 C 34.02637 30.006539999999994 34.39969 29.559839999999998 34.79969 29.239839999999997 C 35.19969 28.919839999999997 35.62637 28.85316 36.07969 29.039839999999998 C 36.29301 29.119839999999996 36.43969 29.366519999999998 36.51969 29.779839999999997 C 36.599689999999995 30.193159999999995 36.66637 30.679839999999995 36.71969 31.239839999999997 C 36.77301 31.79984 36.83301 32.393139999999995 36.89969 33.019839999999995 C 36.96637 33.646539999999995 37.09305 34.21323999999999 37.27973 34.71984 C 37.46641 35.226440000000004 37.733090000000004 35.633199999999995 38.07977 35.93984 C 38.42645 36.24648 38.893130000000006 36.35984 39.47977 36.27984 C 39.79977 36.27984 40.03309 36.2865196 40.179770000000005 36.29984 C 40.32645000000001 36.31316040000001 40.433130000000006 36.33316000000001 40.499810000000004 36.359840000000005 C 40.56649 36.386520000000004 40.59317 36.426520000000004 40.57985 36.47984 C 40.56653 36.53316 40.55985 36.61316 40.55985 36.719840000000005 C 39.57317 37.22652000000001 38.76645 37.39320000000001 38.139849999999996 37.21988 C 37.51324999999999 37.04656 37.01985 36.67324000000001 36.65985 36.099880000000006 C 36.29985 35.526520000000005 36.04653 34.83328000000001 35.89985 34.01988000000001 C 35.753170000000004 33.206480000000006 35.65317 32.39988000000001 35.59985 31.599880000000006 C 35.546530000000004 31.253200000000007 35.43321 31.106520000000007 35.259890000000006 31.159840000000006 C 35.08657000000001 31.213160000000006 34.873250000000006 31.413160000000005 34.619930000000004 31.759840000000008 C 34.36661 32.10652000000001 34.09329 32.539840000000005 33.79997 33.05984000000001 C 33.50665 33.57984000000001 33.22665 34.13314000000001 32.95997 34.719840000000005 C 32.69329 35.30654 32.45997 35.87324 32.259969999999996 36.41984000000001 C 32.05996999999999 36.96644000000001 31.906649999999996 37.41320000000001 31.799969999999995 37.75984000000001 C 31.666649999999994 37.99984000000001 31.453329999999994 38.06652000000001 31.160009999999996 37.959840000000014 C 30.86669 37.85316000000002 30.680009999999996 37.653160000000014 30.600009999999997 37.35984000000001 C 30.493329999999997 36.933160000000015 30.433329999999998 36.406480000000016 30.420009999999998 35.779840000000014 C 30.406689999999998 35.15320000000001 30.406689999999998 34.519840000000016 30.420009999999998 33.879840000000016 C 30.433329999999998 33.239840000000015 30.453329999999998 32.61984000000002 30.480009999999996 32.019840000000016 C 30.506689999999995 31.419840000000015 30.506689999999995 30.906540000000017 30.480009999999996 30.479840000000017 C 30.453329999999998 30.053140000000017 30.400009999999998 29.75984000000002 30.320009999999996 29.599840000000018 C 30.240009999999995 29.439840000000018 30.093329999999995 29.479840000000017 29.880009999999995 29.71984000000002 C 29.426689999999994 30.41316000000002 29.006689999999995 31.19984000000002 28.620009999999994 32.07984000000002 C 28.23332999999999 32.959840000000014 27.89332999999999 33.87314000000002 27.600009999999994 34.81984000000002 C 27.306689999999996 35.76654000000002 27.060009999999995 36.71324000000002 26.860009999999996 37.65984000000002 C 26.660009999999996 38.60644000000001 26.533329999999996 39.466540000000016 26.480009999999996 40.239840000000015 C 26.026689999999995 40.34652000000001 25.706689999999995 40.28652000000002 25.520009999999996 40.059840000000015 C 25.333329999999997 39.833160000000014 25.173329999999996 39.599840000000015 25.040009999999995 39.35984000000001 C 25.093329999999995 39.01316000000001 25.140009999999997 38.33984000000001 25.180009999999996 37.33984000000001 C 25.220009999999995 36.33984000000001 25.260009999999994 35.19984000000001 25.300009999999997 33.91984000000001 C 25.34001 32.63984000000001 25.380009999999995 31.333140000000007 25.420009999999998 29.999840000000006 C 25.46001 28.666540000000005 25.493329999999997 27.506540000000005 25.52001 26.519840000000006 z" stroke-linecap="round" />
</g>
<g transform="matrix(NaN NaN NaN NaN 0 0)"  >
<g style=""   >
</g>
</g>
<g transform="matrix(NaN NaN NaN NaN 0 0)"  >
<g style=""   >
</g>
</g>
<g transform="matrix(NaN NaN NaN NaN 0 0)"  >
<g style=""   >
</g>
</g>
<g transform="matrix(NaN NaN NaN NaN 0 0)"  >
<g style=""   >
</g>
</g>
</svg>